#!OML:ASF C:\ViconDB\ViconDB\414\Spring2016\041811\Spring2016.ASF
:FULLY-SPECIFIED
:DEGREES
363
root 7.06701 17.3897 -38.8726 -178.773 6.72847 -191.107
lowerback -6.46795 -2.25403 -4.6037
upperback -2.0282 -2.59094 -0.207217
thorax 1.72577 -1.24791 2.16135
lowerneck -8.73944 9.25774 6.25385
upperneck 41.5804 20.5879 0.122103
head 17.3641 11.4343 3.04907
rclavicle -1.49089e-014 1.43125e-014
rhumerus -81.0028 29.0992 -113
rradius 88.9775
rwrist 29.8866
rhand -40.9751 0.452803
rfingers 7.12502
rthumb -13.9077 -29.0621
lclavicle -1.49089e-014 1.43125e-014
lhumerus -105.168 -45.4046 140.649
lradius 77.3071
lwrist -11.8603
lhand -43.5029 1.48849
lfingers 7.12502
lthumb -16.3426 30.8199
rfemur 198.71 395.507 -510.918
rtibia 32.6444
rfoot -774.357 -62.8831
rtoes -9.05985
lfemur 9.08501 -0.237317 -39.4129
ltibia 16.3017
lfoot -20.7223 -17.0183
ltoes -8.28387
364
root 7.08962 17.3888 -39.1157 -178.541 6.09692 -190.352
lowerback -6.59705 -2.47927 -4.15581
upperback -2.22576 -2.91796 0.0910651
thorax 1.61094 -1.40297 2.19
lowerneck -8.57029 9.20119 6.37687
upperneck 41.6256 20.5628 0.0530837
head 17.3788 11.456 2.99222
rclavicle 1.64991e-014 -2.70347e-014
rhumerus -80.8517 28.9243 -112.533
rradius 89.3067
rwrist 29.9062
rhand -40.3876 0.593564
rfingers 7.12502
rthumb -13.3414 -28.9593
lclavicle 1.64991e-014 -2.70347e-014
lhumerus -105.646 -44.8724 141.523
lradius 76.887
lwrist -11.6359
lhand -43.8699 2.12204
lfingers 7.12502
lthumb -16.6959 31.424
rfemur 196.732 393.966 -512.24
rtibia 33.0805
rfoot -773.653 -62.8338
rtoes -13.7342
lfemur 10.2833 -0.802797 -38.652
ltibia 15.6493
lfoot -20.1882 -16.8045
ltoes -8.87637
365
root 7.10948 17.4009 -39.3563 -178.286 5.53085 -189.63
lowerback -6.75416 -2.67086 -3.69283
upperback -2.40174 -3.19561 0.345205
thorax 1.52576 -1.53382 2.16694
lowerneck -8.38728 9.15279 6.52003
upperneck 41.6245 20.5146 0.000411752
head 17.3622 11.4709 2.9272
rclavicle 2.0276e-014 5.24792e-014
rhumerus -80.4987 28.7121 -111.983
rradius 89.5737
rwrist 30.1043
rhand -39.6362 0.990211
rfingers 7.12502
rthumb -12.617 -28.6087
lclavicle 2.0276e-014 5.24792e-014
lhumerus -105.988 -44.3828 142.332
lradius 76.4915
lwrist -10.9659
lhand -43.9886 2.43651
lfingers 7.12502
lthumb -16.8103 31.7288
rfemur 194.933 391.766 -513.824
rtibia 33.4911
rfoot -770.884 -62.9715
rtoes -18.4009
lfemur 11.2982 -1.42303 -37.9288
ltibia 15.1791
lfoot -19.4498 -16.5545
ltoes -9.01587
366
root 7.12824 17.4297 -39.596 -177.981 4.89945 -188.724
lowerback -6.84002 -2.83681 -3.00129
upperback -2.65354 -3.4516 0.635743
thorax 1.30872 -1.64945 2.06087
lowerneck -8.20372 9.05641 6.63361
upperneck 41.7255 20.4661 -0.0309891
head 17.3957 11.4959 2.88863
rclavicle 2.8625e-014 4.77083e-015
rhumerus -80.2571 28.4896 -111.449
rradius 89.9399
rwrist 30.1068
rhand -38.7727 1.38373
rfingers 7.12502
rthumb -11.7845 -28.2647
lclavicle 2.8625e-014 4.77083e-015
lhumerus -106.079 -43.8097 142.952
lradius 75.9441
lwrist -10.2814
lhand -44.4248 2.39412
lfingers 7.12502
lthumb -17.2301 31.6503
rfemur 193.308 389.648 -515.074
rtibia 33.8943
rfoot -767.124 -63.2286
rtoes -22.2949
lfemur 12.1409 -2.34267 -37.0741
ltibia 14.9545
lfoot -18.8371 -16.0328
ltoes -10.1418
367
root 7.14661 17.4591 -39.8409 -177.655 4.32282 -187.539
lowerback -7.18826 -2.96207 -2.01882
upperback -2.72404 -3.66929 0.988951
thorax 1.4043 -1.75557 1.84214
lowerneck -8.28632 8.95711 6.79771
upperneck 41.9283 20.4142 -0.0892009
head 17.5647 11.4989 2.871
rclavicle -9.64106e-015 -1.11319e-014
rhumerus -79.6027 28.301 -110.73
rradius 90.2194
rwrist 30.2198
rhand -38.0071 1.57749
rfingers 7.12502
rthumb -11.0461 -28.1119
lclavicle -9.64106e-015 -1.11319e-014
lhumerus -105.886 -43.4952 143.31
lradius 75.3534
lwrist -10.0774
lhand -44.5765 2.88695
lfingers 7.12502
lthumb -17.3761 32.1303
rfemur 191.781 388.138 -515.522
rtibia 34.4799
rfoot -764.306 -63.4271
rtoes -25.3257
lfemur 12.9023 -3.28692 -35.9308
ltibia 14.8549
lfoot -17.9553 -15.4555
ltoes -10.1619
368
root 7.16294 17.4886 -40.0858 -177.486 3.81226 -186.359
lowerback -7.45925 -3.06891 -1.0302
upperback -2.68239 -3.87554 1.33229
thorax 1.56572 -1.85815 1.61027
lowerneck -8.53745 8.89318 6.79785
upperneck 42.1062 20.323 -0.0247397
head 17.7131 11.4569 2.92782
rclavicle 6.48038e-014 6.36111e-015
rhumerus -78.9283 28.3422 -110.148
rradius 90.5098
rwrist 30.6663
rhand -37.1992 2.02672
rfingers 7.12502
rthumb -10.2668 -27.7027
lclavicle 6.48038e-014 6.36111e-015
lhumerus -105.321 -43.1793 143.303
lradius 74.6989
lwrist -9.86261
lhand -45.1521 3.21209
lfingers 7.12502
lthumb -17.93 32.4056
rfemur 190.265 387.483 -515.325
rtibia 35.1687
rfoot -764.422 -63.6854
rtoes -27.2267
lfemur 13.5227 -3.8311 -34.6672
ltibia 15.2142
lfoot -17.0134 -15.283
ltoes -10.6263
369
root 7.17754 17.5064 -40.3344 -177.493 3.22761 -186.551
lowerback -7.6048 -3.24713 -1.45729
upperback -2.69888 -4.0781 1.28095
thorax 1.66258 -1.95819 1.76909
lowerneck -8.61687 8.79225 6.91773
upperneck 42.1941 20.1856 -0.055943
head 17.8002 11.4173 2.89504
rclavicle 9.64106e-015 -4.6118e-014
rhumerus -78.5044 28.4231 -109.798
rradius 90.7687
rwrist 31.1458
rhand -36.7207 1.90465
rfingers 7.12502
rthumb -9.80517 -27.8471
lclavicle 9.64106e-015 -4.6118e-014
lhumerus -104.943 -42.8347 143.314
lradius 74.0859
lwrist -10.0251
lhand -45.6904 3.50767
lfingers 7.12502
lthumb -18.4479 32.6529
rfemur 188.908 388.054 -515.949
rtibia 35.9608
rfoot -767.292 -64.0185
rtoes -29.0193
lfemur 13.9505 -4.3431 -34.8201
ltibia 15.9826
lfoot -15.7895 -15.3534
ltoes -10.9224
